# xmcd
#
# Track frame offsets:
#	150
#	15762
#	27975
#	45035
#	64690
#	84020
#	100640
#	117597
#	135965
#	151282
#	164052
#	178067
#	195562
#	215102
#	227505
#
# Disc length: 3256 seconds
#
# Revision: 1
# Processed by: cddbd v1.5.1PL0 Copyright (c) Steve Scherf et al.
# Submitted via: audiograbber 1.83.01
#
DISCID=b00cb60f
DTITLE=Music Maestro - Hits Of Garth Brooks - MM6019
DYEAR=1900
DGENRE=Karaoke
TTITLE0=Brooks, Garth - Somewhere Other Than The Night
TTITLE1=Brooks, Garth - Against The Grain
TTITLE2=Brooks, Garth - Friends In Low Places
TTITLE3=Brooks, Garth - Shameless
TTITLE4=Brooks, Garth - Dance, The
TTITLE5=Brooks, Garth - Thunder Rolls, The
TTITLE6=Brooks, Garth - Unanswered Prayer
TTITLE7=Brooks, Garth - If Tomorrow Never Comes
TTITLE8=Brooks, Garth - Much Too Young To Feel This Damn Old
TTITLE9=Brooks, Garth - Not Counting You
TTITLE10=Brooks, Garth - Papa Loved Mama
TTITLE11=Brooks, Garth - Rodeo
TTITLE12=Brooks, Garth - River, The
TTITLE13=Brooks, Garth - Two Of A Kind, Working On A Full House
TTITLE14=Brooks, Garth - What She's Doing Now
EXTD=
EXTT0=
EXTT1=
EXTT2=
EXTT3=
EXTT4=
EXTT5=
EXTT6=
EXTT7=
EXTT8=
EXTT9=
EXTT10=
EXTT11=
EXTT12=
EXTT13=
EXTT14=
PLAYORDER=
